<svg width="32" height="32" viewBox="0 0 32 32" fill="none" xmlns="http://www.w3.org/2000/svg">
<g id="heroicons-solid/bars-3-bottom-left">
<path id="Vector (Stroke)" fill-rule="evenodd" clip-rule="evenodd" d="M4 9C4 8.44772 4.44772 8 5 8H27C27.5523 8 28 8.44772 28 9C28 9.55228 27.5523 10 27 10H5C4.44772 10 4 9.55228 4 9ZM4 16C4 15.4477 4.44772 15 5 15H27C27.5523 15 28 15.4477 28 16C28 16.5523 27.5523 17 27 17H5C4.44772 17 4 16.5523 4 16ZM4 23C4 22.4477 4.44772 22 5 22H16C16.5523 22 17 22.4477 17 23C17 23.5523 16.5523 24 16 24H5C4.44772 24 4 23.5523 4 23Z" fill="#0F172A"/>
</g>
</svg>
