<svg width="30" height="30" viewBox="0 0 30 30" fill="none" xmlns="http://www.w3.org/2000/svg">
<g id="Profile">
<g id="More">
<path id="Border" d="M28.9931 15C28.9931 22.712 22.7413 28.9638 15.0293 28.9638C7.31726 28.9638 1.06543 22.712 1.06543 15C1.06543 7.28796 7.31726 1.03613 15.0293 1.03613C22.7413 1.03613 28.9931 7.28796 28.9931 15Z" stroke="#5C5C5C"/>
<g id="chevron-down">
<path id="Shape" d="M15.0303 16.2744L11.3848 12.0213C11.1158 11.7075 10.6797 11.7075 10.4107 12.0213C10.1417 12.3351 10.1417 12.8439 10.4107 13.1577L14.5432 17.979C14.8122 18.2928 15.2483 18.2928 15.5173 17.979L19.6498 13.1577C19.9188 12.8439 19.9188 12.3351 19.6498 12.0213C19.3808 11.7075 18.9447 11.7075 18.6758 12.0213L15.0303 16.2744Z" fill="#565656"/>
<mask id="mask0_753_436" style="mask-type:luminance" maskUnits="userSpaceOnUse" x="8" y="10" width="13" height="10">
<path id="Shape_2" d="M14.5597 16.5851L9.75001 10.6932C9.39513 10.2584 8.81976 10.2584 8.46489 10.6932C8.11001 11.1279 8.11001 11.8327 8.46489 12.2674L13.9172 18.9465C14.2721 19.3812 14.8474 19.3812 15.2023 18.9465L20.6546 12.2674C21.0095 11.8327 21.0095 11.1279 20.6546 10.6932C20.2997 10.2584 19.7244 10.2584 19.3695 10.6932L14.5597 16.5851Z" fill="white"/>
</mask>
<g mask="url(#mask0_753_436)">
</g>
</g>
</g>
</g>
</svg>
