<svg xmlns="http://www.w3.org/2000/svg" width="18" height="18" viewBox="0 0 18 18" fill="none">
  <path d="M10.8164 12.529C12.132 12.3729 13.4007 12.0636 14.6041 11.6194C13.6063 10.5118 12.999 9.04558 12.999 7.4375V6.95082C12.9991 6.93945 12.9991 6.92806 12.9991 6.91667C12.9991 4.61548 11.1336 2.75 8.83244 2.75C6.53125 2.75 4.66577 4.61548 4.66577 6.91667L4.66563 7.4375C4.66563 9.04558 4.05832 10.5118 3.06055 11.6194C4.26397 12.0636 5.53274 12.3729 6.8485 12.529M10.8164 12.529C10.1658 12.6061 9.50367 12.6458 8.8323 12.6458C8.16103 12.6458 7.49902 12.6061 6.8485 12.529M10.8164 12.529C10.8809 12.7299 10.9158 12.9442 10.9158 13.1667C10.9158 14.3173 9.98303 15.25 8.83244 15.25C7.68184 15.25 6.7491 14.3173 6.7491 13.1667C6.7491 12.9442 6.78396 12.73 6.8485 12.529" stroke="#0F172A" stroke-width="1.5" stroke-linecap="round" stroke-linejoin="round"/>
</svg>