<svg xmlns="http://www.w3.org/2000/svg" width="16" height="15" viewBox="0 0 16 15" fill="none">
  <path fill-rule="evenodd" clip-rule="evenodd" d="M4.97596 3.71999C4.97596 2.19324 6.21364 0.955566 7.74039 0.955566C9.26713 0.955566 10.5048 2.19324 10.5048 3.71999C10.5048 5.24674 9.26713 6.48441 7.74039 6.48441C6.21364 6.48441 4.97596 5.24674 4.97596 3.71999Z" fill="white"/>
  <path fill-rule="evenodd" clip-rule="evenodd" d="M10.5048 5.93153C10.5048 4.71013 11.4949 3.71999 12.7163 3.71999C13.9377 3.71999 14.9279 4.71013 14.9279 5.93153C14.9279 7.15293 13.9377 8.14307 12.7163 8.14307C11.4949 8.14307 10.5048 7.15293 10.5048 5.93153Z" fill="white"/>
  <path fill-rule="evenodd" clip-rule="evenodd" d="M0.552885 5.93153C0.552885 4.71013 1.54302 3.71999 2.76442 3.71999C3.98582 3.71999 4.97596 4.71013 4.97596 5.93153C4.97596 7.15293 3.98582 8.14307 2.76442 8.14307C1.54302 8.14307 0.552885 7.15293 0.552885 5.93153Z" fill="white"/>
  <path fill-rule="evenodd" clip-rule="evenodd" d="M3.54573 9.88836C4.42885 8.50754 5.97731 7.59018 7.74039 7.59018C9.50368 7.59018 11.0523 8.50776 11.9354 9.88887C12.5459 10.8437 12.81 11.995 12.6861 13.1175C12.6667 13.2929 12.5648 13.4486 12.4117 13.5364C11.0351 14.3263 9.43964 14.7777 7.74039 14.7777C6.04112 14.7777 4.44563 14.3263 3.06906 13.5364C2.91598 13.4486 2.81403 13.2929 2.79467 13.1175C2.67075 11.9948 2.93501 10.8433 3.54573 9.88836Z" fill="white"/>
  <path d="M2.64079 9.25155C2.63191 9.26519 2.62309 9.27886 2.61432 9.29258C1.9026 10.4054 1.57689 11.7307 1.67687 13.0372C1.22863 12.9691 0.793719 12.8596 0.376277 12.7126L0.291532 12.6828C0.136937 12.6283 0.0289176 12.4879 0.0159164 12.3245L0.00878949 12.235C0.00296136 12.1617 0 12.0878 0 12.0133C0 10.5279 1.17141 9.31622 2.64079 9.25155Z" fill="white"/>
  <path d="M13.8042 13.0372C13.9041 11.7309 13.5786 10.4059 12.8671 9.2932C12.8582 9.27928 12.8493 9.2654 12.8403 9.25156C14.3095 9.31637 15.4808 10.528 15.4808 12.0133C15.4808 12.0878 15.4778 12.1617 15.472 12.235L15.4649 12.3245C15.4519 12.4879 15.3438 12.6283 15.1892 12.6828L15.1045 12.7126C14.6871 12.8596 14.2523 12.9691 13.8042 13.0372Z" fill="white"/>
</svg>