<svg xmlns="http://www.w3.org/2000/svg" width="21" height="22" viewBox="0 0 21 22" fill="none">
  <mask id="path-1-inside-1_1126_5861" fill="white">
    <path fill-rule="evenodd" clip-rule="evenodd" d="M2.06358 20.9002H14.4451C15.0149 20.9002 15.4769 20.4077 15.4769 19.8002V2.20002C15.4769 1.5925 15.0149 1.10001 14.4451 1.10001H2.06358C1.49374 1.10001 1.03179 1.5925 1.03179 2.20002V19.8002C1.03179 20.4077 1.49374 20.9002 2.06358 20.9002ZM14.4451 22.0002H2.06358C0.923896 22.0002 0 21.0152 0 19.8002V2.20002C0 0.984981 0.923896 0 2.06358 0H14.4451C15.5847 0 16.5087 0.984981 16.5087 2.20002V19.8002C16.5087 21.0152 15.5847 22.0002 14.4451 22.0002Z"/>
  </mask>
  <path fill-rule="evenodd" clip-rule="evenodd" d="M2.06358 20.9002H14.4451C15.0149 20.9002 15.4769 20.4077 15.4769 19.8002V2.20002C15.4769 1.5925 15.0149 1.10001 14.4451 1.10001H2.06358C1.49374 1.10001 1.03179 1.5925 1.03179 2.20002V19.8002C1.03179 20.4077 1.49374 20.9002 2.06358 20.9002ZM14.4451 22.0002H2.06358C0.923896 22.0002 0 21.0152 0 19.8002V2.20002C0 0.984981 0.923896 0 2.06358 0H14.4451C15.5847 0 16.5087 0.984981 16.5087 2.20002V19.8002C16.5087 21.0152 15.5847 22.0002 14.4451 22.0002Z" fill="#333333"/>
  <path d="M2.06358 22.1899H14.4451V19.6104H2.06358V22.1899ZM14.4451 22.1899C15.8038 22.1899 16.7666 21.041 16.7666 19.8002H14.1871C14.1871 19.7743 14.1976 19.7343 14.234 19.6956C14.2716 19.6555 14.3461 19.6104 14.4451 19.6104V22.1899ZM16.7666 19.8002V2.20002H14.1871V19.8002H16.7666ZM16.7666 2.20002C16.7666 0.959221 15.8038 -0.189761 14.4451 -0.189761V2.38978C14.3461 2.38978 14.2716 2.34468 14.234 2.30456C14.1977 2.26586 14.1871 2.22585 14.1871 2.20002H16.7666ZM14.4451 -0.189761H2.06358V2.38978H14.4451V-0.189761ZM2.06358 -0.189761C0.704879 -0.189761 -0.257978 0.959208 -0.257978 2.20002H2.32156C2.32156 2.22587 2.31099 2.26587 2.2747 2.30456C2.23708 2.34467 2.16255 2.38978 2.06358 2.38978V-0.189761ZM-0.257978 2.20002V19.8002H2.32156V2.20002H-0.257978ZM-0.257978 19.8002C-0.257978 21.041 0.704891 22.1899 2.06358 22.1899V19.6104C2.16254 19.6104 2.23707 19.6555 2.2747 19.6956C2.311 19.7343 2.32156 19.7743 2.32156 19.8002H-0.257978ZM14.4451 20.7104H2.06358V23.2899H14.4451V20.7104ZM2.06358 20.7104C1.71276 20.7104 1.28977 20.3819 1.28977 19.8002H-1.28977C-1.28977 21.6484 0.135028 23.2899 2.06358 23.2899V20.7104ZM1.28977 19.8002V2.20002H-1.28977V19.8002H1.28977ZM1.28977 2.20002C1.28977 1.61827 1.71276 1.28977 2.06358 1.28977V-1.28977C0.135036 -1.28977 -1.28977 0.35169 -1.28977 2.20002H1.28977ZM2.06358 1.28977H14.4451V-1.28977H2.06358V1.28977ZM14.4451 1.28977C14.7959 1.28977 15.2189 1.61828 15.2189 2.20002H17.7984C17.7984 0.351681 16.3736 -1.28977 14.4451 -1.28977V1.28977ZM15.2189 2.20002V19.8002H17.7984V2.20002H15.2189ZM15.2189 19.8002C15.2189 20.3819 14.7959 20.7104 14.4451 20.7104V23.2899C16.3736 23.2899 17.7984 21.6485 17.7984 19.8002H15.2189Z" fill="black" mask="url(#path-1-inside-1_1126_5861)"/>
  <mask id="path-3-inside-2_1126_5861" fill="white">
    <path fill-rule="evenodd" clip-rule="evenodd" d="M7.22266 4.94991C7.22266 4.64614 7.45362 4.3999 7.73855 4.3999H13.9293C14.2142 4.3999 14.4452 4.64614 14.4452 4.94991C14.4452 5.25367 14.2142 5.49991 13.9293 5.49991H7.73855C7.45362 5.49991 7.22266 5.25367 7.22266 4.94991Z"/>
  </mask>
  <path fill-rule="evenodd" clip-rule="evenodd" d="M7.22266 4.94991C7.22266 4.64614 7.45362 4.3999 7.73855 4.3999H13.9293C14.2142 4.3999 14.4452 4.64614 14.4452 4.94991C14.4452 5.25367 14.2142 5.49991 13.9293 5.49991H7.73855C7.45362 5.49991 7.22266 5.25367 7.22266 4.94991Z" fill="#333333"/>
  <path d="M8.51243 4.94991C8.51243 5.27943 8.24248 5.68967 7.73855 5.68967V3.11013C6.66476 3.11013 5.93289 4.01285 5.93289 4.94991H8.51243ZM7.73855 5.68967H13.9293V3.11013H7.73855V5.68967ZM13.9293 5.68967C13.4254 5.68967 13.1554 5.27943 13.1554 4.94991H15.735C15.735 4.01285 15.0031 3.11013 13.9293 3.11013V5.68967ZM13.1554 4.94991C13.1554 4.62038 13.4254 4.21014 13.9293 4.21014V6.78968C15.0031 6.78968 15.735 5.88696 15.735 4.94991H13.1554ZM13.9293 4.21014H7.73855V6.78968H13.9293V4.21014ZM7.73855 4.21014C8.24248 4.21014 8.51243 4.62038 8.51243 4.94991H5.93289C5.93289 5.88696 6.66476 6.78968 7.73855 6.78968V4.21014Z" fill="black" mask="url(#path-3-inside-2_1126_5861)"/>
  <mask id="path-5-inside-3_1126_5861" fill="white">
    <path fill-rule="evenodd" clip-rule="evenodd" d="M7.22266 7.1501C7.22266 6.84633 7.45362 6.6001 7.73855 6.6001H13.9293C14.2142 6.6001 14.4452 6.84633 14.4452 7.1501C14.4452 7.45387 14.2142 7.70011 13.9293 7.70011H7.73855C7.45362 7.70011 7.22266 7.45387 7.22266 7.1501Z"/>
  </mask>
  <path fill-rule="evenodd" clip-rule="evenodd" d="M7.22266 7.1501C7.22266 6.84633 7.45362 6.6001 7.73855 6.6001H13.9293C14.2142 6.6001 14.4452 6.84633 14.4452 7.1501C14.4452 7.45387 14.2142 7.70011 13.9293 7.70011H7.73855C7.45362 7.70011 7.22266 7.45387 7.22266 7.1501Z" fill="#333333"/>
  <path d="M8.51243 7.1501C8.51243 7.47963 8.24248 7.88987 7.73855 7.88987V5.31033C6.66476 5.31033 5.93289 6.21304 5.93289 7.1501H8.51243ZM7.73855 7.88987H13.9293V5.31033H7.73855V7.88987ZM13.9293 7.88987C13.4254 7.88987 13.1554 7.47963 13.1554 7.1501H15.735C15.735 6.21304 15.0031 5.31033 13.9293 5.31033V7.88987ZM13.1554 7.1501C13.1554 6.82058 13.4254 6.41034 13.9293 6.41034V8.98988C15.0031 8.98988 15.735 8.08716 15.735 7.1501H13.1554ZM13.9293 6.41034H7.73855V8.98988H13.9293V6.41034ZM7.73855 6.41034C8.24248 6.41034 8.51243 6.82058 8.51243 7.1501H5.93289C5.93289 8.08716 6.66476 8.98988 7.73855 8.98988V6.41034Z" fill="black" mask="url(#path-5-inside-3_1126_5861)"/>
  <mask id="path-7-inside-4_1126_5861" fill="white">
    <path fill-rule="evenodd" clip-rule="evenodd" d="M7.22266 11.55C7.22266 11.2462 7.45362 11 7.73855 11H13.9293C14.2142 11 14.4452 11.2462 14.4452 11.55C14.4452 11.8538 14.2142 12.1 13.9293 12.1H7.73855C7.45362 12.1 7.22266 11.8538 7.22266 11.55Z"/>
  </mask>
  <path fill-rule="evenodd" clip-rule="evenodd" d="M7.22266 11.55C7.22266 11.2462 7.45362 11 7.73855 11H13.9293C14.2142 11 14.4452 11.2462 14.4452 11.55C14.4452 11.8538 14.2142 12.1 13.9293 12.1H7.73855C7.45362 12.1 7.22266 11.8538 7.22266 11.55Z" fill="#333333"/>
  <path d="M8.51243 11.55C8.51243 11.8795 8.24248 12.2898 7.73855 12.2898V9.71023C6.66476 9.71023 5.93289 10.6129 5.93289 11.55H8.51243ZM7.73855 12.2898H13.9293V9.71023H7.73855V12.2898ZM13.9293 12.2898C13.4254 12.2898 13.1554 11.8795 13.1554 11.55H15.735C15.735 10.6129 15.0031 9.71023 13.9293 9.71023V12.2898ZM13.1554 11.55C13.1554 11.2205 13.4254 10.8102 13.9293 10.8102V13.3898C15.0031 13.3898 15.735 12.4871 15.735 11.55H13.1554ZM13.9293 10.8102H7.73855V13.3898H13.9293V10.8102ZM7.73855 10.8102C8.24248 10.8102 8.51243 11.2205 8.51243 11.55H5.93289C5.93289 12.4871 6.66476 13.3898 7.73855 13.3898V10.8102Z" fill="black" mask="url(#path-7-inside-4_1126_5861)"/>
  <mask id="path-9-inside-5_1126_5861" fill="white">
    <path fill-rule="evenodd" clip-rule="evenodd" d="M7.22266 13.75C7.22266 13.4462 7.45362 13.2 7.73855 13.2H13.9293C14.2142 13.2 14.4452 13.4462 14.4452 13.75C14.4452 14.0537 14.2142 14.3 13.9293 14.3H7.73855C7.45362 14.3 7.22266 14.0537 7.22266 13.75Z"/>
  </mask>
  <path fill-rule="evenodd" clip-rule="evenodd" d="M7.22266 13.75C7.22266 13.4462 7.45362 13.2 7.73855 13.2H13.9293C14.2142 13.2 14.4452 13.4462 14.4452 13.75C14.4452 14.0537 14.2142 14.3 13.9293 14.3H7.73855C7.45362 14.3 7.22266 14.0537 7.22266 13.75Z" fill="#333333"/>
  <path d="M8.51243 13.75C8.51243 14.0795 8.24248 14.4897 7.73855 14.4897V11.9102C6.66476 11.9102 5.93289 12.8129 5.93289 13.75H8.51243ZM7.73855 14.4897H13.9293V11.9102H7.73855V14.4897ZM13.9293 14.4897C13.4254 14.4897 13.1554 14.0795 13.1554 13.75H15.735C15.735 12.8129 15.0031 11.9102 13.9293 11.9102V14.4897ZM13.1554 13.75C13.1554 13.4204 13.4254 13.0102 13.9293 13.0102V15.5897C15.0031 15.5897 15.735 14.687 15.735 13.75H13.1554ZM13.9293 13.0102H7.73855V15.5897H13.9293V13.0102ZM7.73855 13.0102C8.24248 13.0102 8.51243 13.4204 8.51243 13.75H5.93289C5.93289 14.687 6.66476 15.5897 7.73855 15.5897V13.0102Z" fill="black" mask="url(#path-9-inside-5_1126_5861)"/>
  <mask id="path-11-inside-6_1126_5861" fill="white">
    <path fill-rule="evenodd" clip-rule="evenodd" d="M3.09429 12.1V13.75H4.64198V12.1H3.09429ZM2.5784 11H5.15787C5.4428 11 5.67377 11.2462 5.67377 11.55V14.3C5.67377 14.6038 5.4428 14.85 5.15787 14.85H2.5784C2.29348 14.85 2.0625 14.6038 2.0625 14.3V11.55C2.0625 11.2462 2.29348 11 2.5784 11Z"/>
  </mask>
  <path fill-rule="evenodd" clip-rule="evenodd" d="M3.09429 12.1V13.75H4.64198V12.1H3.09429ZM2.5784 11H5.15787C5.4428 11 5.67377 11.2462 5.67377 11.55V14.3C5.67377 14.6038 5.4428 14.85 5.15787 14.85H2.5784C2.29348 14.85 2.0625 14.6038 2.0625 14.3V11.55C2.0625 11.2462 2.29348 11 2.5784 11Z" fill="#333333"/>
  <path d="M3.09429 12.1V10.8102H1.80452V12.1H3.09429ZM3.09429 13.75H1.80452V15.0398H3.09429V13.75ZM4.64198 13.75V15.0398H5.93175V13.75H4.64198ZM4.64198 12.1H5.93175V10.8102H4.64198V12.1ZM1.80452 12.1V13.75H4.38406V12.1H1.80452ZM3.09429 15.0398H4.64198V12.4603H3.09429V15.0398ZM5.93175 13.75V12.1H3.35221V13.75H5.93175ZM4.64198 10.8102H3.09429V13.3898H4.64198V10.8102ZM2.5784 12.2898H5.15787V9.71023H2.5784V12.2898ZM5.15787 12.2898C4.65394 12.2898 4.384 11.8795 4.384 11.55H6.96354C6.96354 10.6129 6.23166 9.71023 5.15787 9.71023V12.2898ZM4.384 11.55V14.3H6.96354V11.55H4.384ZM4.384 14.3C4.384 13.9705 4.65394 13.5603 5.15787 13.5603V16.1398C6.23166 16.1398 6.96354 15.2371 6.96354 14.3H4.384ZM5.15787 13.5603H2.5784V16.1398H5.15787V13.5603ZM2.5784 13.5603C3.08232 13.5603 3.35227 13.9705 3.35227 14.3H0.772731C0.772731 15.2371 1.50463 16.1398 2.5784 16.1398V13.5603ZM3.35227 14.3V11.55H0.772731V14.3H3.35227ZM3.35227 11.55C3.35227 11.8795 3.08232 12.2898 2.5784 12.2898V9.71023C1.50463 9.71023 0.772731 10.6129 0.772731 11.55H3.35227Z" fill="black" mask="url(#path-11-inside-6_1126_5861)"/>
  <path d="M2.62819 6.04991L2.5784 6.00319L2.62819 6.04991ZM2.62819 6.04991L2.5784 6.00319M2.62819 6.04991L2.5784 6.00319M2.57838 6.00317L2.21539 5.66267L2.57838 6.00318L2.57838 6.00317ZM2.57838 6.00317L2.94319 5.66099L2.5784 6.00319M2.57838 6.00317L2.5784 6.00319" fill="#333333" stroke="black" stroke-width="1.28977"/>
  <mask id="path-14-inside-7_1126_5861" fill="white">
    <path fill-rule="evenodd" clip-rule="evenodd" d="M19.6066 10.9997H18.5748V19.433L19.0907 20.1664L19.6066 19.433V10.9997ZM20.6383 19.7997L19.0907 21.9998L17.543 19.7997V9.89966H20.6383V19.7997Z"/>
  </mask>
  <path fill-rule="evenodd" clip-rule="evenodd" d="M19.6066 10.9997H18.5748V19.433L19.0907 20.1664L19.6066 19.433V10.9997ZM20.6383 19.7997L19.0907 21.9998L17.543 19.7997V9.89966H20.6383V19.7997Z" fill="#333333"/>
  <path d="M19.6066 10.9997H20.8963V9.7099H19.6066V10.9997ZM18.5748 10.9997V9.7099H17.285V10.9997H18.5748ZM18.5748 19.433H17.285V19.8413L17.5199 20.1751L18.5748 19.433ZM19.0907 20.1664L18.0357 20.9085L19.0907 22.4081L20.1456 20.9085L19.0907 20.1664ZM19.6066 19.433L20.6615 20.1751L20.8963 19.8413V19.433H19.6066ZM20.6383 19.7997L21.6932 20.5418L21.9281 20.208V19.7997H20.6383ZM19.0907 21.9998L18.0358 22.7419L19.0907 24.2414L20.1455 22.7419L19.0907 21.9998ZM17.543 19.7997H16.2532V20.208L16.4881 20.5418L17.543 19.7997ZM17.543 9.89966V8.60989H16.2532V9.89966H17.543ZM20.6383 9.89966H21.9281V8.60989H20.6383V9.89966ZM19.6066 9.7099H18.5748V12.2894H19.6066V9.7099ZM17.285 10.9997V19.433H19.8645V10.9997H17.285ZM17.5199 20.1751L18.0357 20.9085L20.1456 19.4243L19.6297 18.691L17.5199 20.1751ZM20.1456 20.9085L20.6615 20.1751L18.5516 18.691L18.0357 19.4243L20.1456 20.9085ZM20.8963 19.433V10.9997H18.3168V19.433H20.8963ZM19.5835 19.0576L18.0358 21.2576L20.1455 22.7419L21.6932 20.5418L19.5835 19.0576ZM20.1455 21.2576L18.5979 19.0576L16.4881 20.5418L18.0358 22.7419L20.1455 21.2576ZM18.8327 19.7997V9.89966H16.2532V19.7997H18.8327ZM17.543 11.1894H20.6383V8.60989H17.543V11.1894ZM19.3486 9.89966V19.7997H21.9281V9.89966H19.3486Z" fill="black" mask="url(#path-14-inside-7_1126_5861)"/>
  <mask id="path-16-inside-8_1126_5861" fill="white">
    <path fill-rule="evenodd" clip-rule="evenodd" d="M19.6066 7.15006H18.5748V8.25007H19.6066V7.15006ZM18.5748 6.05005H19.6066C20.1764 6.05005 20.6383 6.54252 20.6383 7.15006V9.35007H17.543V7.15006C17.543 6.54252 18.0049 6.05005 18.5748 6.05005Z"/>
  </mask>
  <path fill-rule="evenodd" clip-rule="evenodd" d="M19.6066 7.15006H18.5748V8.25007H19.6066V7.15006ZM18.5748 6.05005H19.6066C20.1764 6.05005 20.6383 6.54252 20.6383 7.15006V9.35007H17.543V7.15006C17.543 6.54252 18.0049 6.05005 18.5748 6.05005Z" fill="#333333"/>
  <path d="M19.6066 7.15006H20.8963V5.86029H19.6066V7.15006ZM18.5748 7.15006V5.86029H17.285V7.15006H18.5748ZM18.5748 8.25007H17.285V9.53983H18.5748V8.25007ZM19.6066 8.25007V9.53983H20.8963V8.25007H19.6066ZM20.6383 9.35007V10.6398H21.9281V9.35007H20.6383ZM17.543 9.35007H16.2532V10.6398H17.543V9.35007ZM19.6066 5.86029H18.5748V8.43983H19.6066V5.86029ZM17.285 7.15006V8.25007H19.8645V7.15006H17.285ZM18.5748 9.53983H19.6066V6.9603H18.5748V9.53983ZM20.8963 8.25007V7.15006H18.3168V8.25007H20.8963ZM18.5748 7.33982H19.6066V4.76028H18.5748V7.33982ZM19.6066 7.33982C19.5076 7.33982 19.4331 7.29473 19.3954 7.2546C19.3591 7.21589 19.3486 7.17588 19.3486 7.15006H21.9281C21.9281 5.90923 20.9653 4.76028 19.6066 4.76028V7.33982ZM19.3486 7.15006V9.35007H21.9281V7.15006H19.3486ZM20.6383 8.06031H17.543V10.6398H20.6383V8.06031ZM18.8327 9.35007V7.15006H16.2532V9.35007H18.8327ZM18.8327 7.15006C18.8327 7.17588 18.8222 7.21589 18.7859 7.2546C18.7482 7.29473 18.6737 7.33982 18.5748 7.33982V4.76028C17.216 4.76028 16.2532 5.90923 16.2532 7.15006H18.8327Z" fill="black" mask="url(#path-16-inside-8_1126_5861)"/>
</svg>