<svg xmlns="http://www.w3.org/2000/svg" width="16" height="16" viewBox="0 0 16 16" fill="none">
  <path d="M4.19961 9.6001C4.19961 9.26873 4.46824 9.0001 4.79961 9.0001H4.80761C5.13898 9.0001 5.40761 9.26873 5.40761 9.6001V9.6081C5.40761 9.93947 5.13898 10.2081 4.80761 10.2081H4.79961C4.46824 10.2081 4.19961 9.93947 4.19961 9.6081V9.6001Z" fill="#004E79"/>
  <path d="M4.79961 10.6001C4.46824 10.6001 4.19961 10.8687 4.19961 11.2001V11.2081C4.19961 11.5395 4.46824 11.8081 4.79961 11.8081H4.80761C5.13898 11.8081 5.40761 11.5395 5.40761 11.2081V11.2001C5.40761 10.8687 5.13898 10.6001 4.80761 10.6001H4.79961Z" fill="#004E79"/>
  <path d="M5.79961 9.6001C5.79961 9.26873 6.06824 9.0001 6.39961 9.0001H6.40761C6.73898 9.0001 7.00761 9.26873 7.00761 9.6001V9.6081C7.00761 9.93947 6.73898 10.2081 6.40761 10.2081H6.39961C6.06824 10.2081 5.79961 9.93947 5.79961 9.6081V9.6001Z" fill="#004E79"/>
  <path d="M6.39961 10.6001C6.06824 10.6001 5.79961 10.8687 5.79961 11.2001V11.2081C5.79961 11.5395 6.06824 11.8081 6.39961 11.8081H6.40761C6.73898 11.8081 7.00761 11.5395 7.00761 11.2081V11.2001C7.00761 10.8687 6.73898 10.6001 6.40761 10.6001H6.39961Z" fill="#004E79"/>
  <path d="M7.39961 8.0001C7.39961 7.66873 7.66824 7.4001 7.99961 7.4001H8.00761C8.33898 7.4001 8.60761 7.66873 8.60761 8.0001V8.0081C8.60761 8.33947 8.33898 8.6081 8.00761 8.6081H7.99961C7.66824 8.6081 7.39961 8.33947 7.39961 8.0081V8.0001Z" fill="#004E79"/>
  <path d="M7.99961 9.0001C7.66824 9.0001 7.39961 9.26873 7.39961 9.6001V9.6081C7.39961 9.93947 7.66824 10.2081 7.99961 10.2081H8.00761C8.33898 10.2081 8.60761 9.93947 8.60761 9.6081V9.6001C8.60761 9.26873 8.33898 9.0001 8.00761 9.0001H7.99961Z" fill="#004E79"/>
  <path d="M7.39961 11.2001C7.39961 10.8687 7.66824 10.6001 7.99961 10.6001H8.00761C8.33898 10.6001 8.60761 10.8687 8.60761 11.2001V11.2081C8.60761 11.5395 8.33898 11.8081 8.00761 11.8081H7.99961C7.66824 11.8081 7.39961 11.5395 7.39961 11.2081V11.2001Z" fill="#004E79"/>
  <path d="M9.59961 7.4001C9.26824 7.4001 8.99961 7.66873 8.99961 8.0001V8.0081C8.99961 8.33947 9.26824 8.6081 9.59961 8.6081H9.60761C9.93898 8.6081 10.2076 8.33947 10.2076 8.0081V8.0001C10.2076 7.66873 9.93898 7.4001 9.60761 7.4001H9.59961Z" fill="#004E79"/>
  <path d="M8.99961 9.6001C8.99961 9.26873 9.26824 9.0001 9.59961 9.0001H9.60761C9.93898 9.0001 10.2076 9.26873 10.2076 9.6001V9.6081C10.2076 9.93947 9.93898 10.2081 9.60761 10.2081H9.59961C9.26824 10.2081 8.99961 9.93947 8.99961 9.6081V9.6001Z" fill="#004E79"/>
  <path d="M9.59961 10.6001C9.26824 10.6001 8.99961 10.8687 8.99961 11.2001V11.2081C8.99961 11.5395 9.26824 11.8081 9.59961 11.8081H9.60761C9.93898 11.8081 10.2076 11.5395 10.2076 11.2081V11.2001C10.2076 10.8687 9.93898 10.6001 9.60761 10.6001H9.59961Z" fill="#004E79"/>
  <path d="M10.5996 8.0001C10.5996 7.66873 10.8682 7.4001 11.1996 7.4001H11.2076C11.539 7.4001 11.8076 7.66873 11.8076 8.0001V8.0081C11.8076 8.33947 11.539 8.6081 11.2076 8.6081H11.1996C10.8682 8.6081 10.5996 8.33947 10.5996 8.0081V8.0001Z" fill="#004E79"/>
  <path d="M11.1996 9.0001C10.8682 9.0001 10.5996 9.26873 10.5996 9.6001V9.6081C10.5996 9.93947 10.8682 10.2081 11.1996 10.2081H11.2076C11.539 10.2081 11.8076 9.93947 11.8076 9.6081V9.6001C11.8076 9.26873 11.539 9.0001 11.2076 9.0001H11.1996Z" fill="#004E79"/>
  <path fill-rule="evenodd" clip-rule="evenodd" d="M4.59961 1.6001C4.93098 1.6001 5.19961 1.86873 5.19961 2.2001V3.2001H10.7996V2.2001C10.7996 1.86873 11.0682 1.6001 11.3996 1.6001C11.731 1.6001 11.9996 1.86873 11.9996 2.2001V3.2001H12.1996C13.4146 3.2001 14.3996 4.18507 14.3996 5.4001V12.2001C14.3996 13.4151 13.4146 14.4001 12.1996 14.4001H3.79961C2.58458 14.4001 1.59961 13.4151 1.59961 12.2001V5.4001C1.59961 4.18507 2.58458 3.2001 3.79961 3.2001H3.99961V2.2001C3.99961 1.86873 4.26824 1.6001 4.59961 1.6001ZM3.79961 6.0001C3.24732 6.0001 2.79961 6.44781 2.79961 7.0001V12.2001C2.79961 12.7524 3.24732 13.2001 3.79961 13.2001H12.1996C12.7519 13.2001 13.1996 12.7524 13.1996 12.2001V7.0001C13.1996 6.44781 12.7519 6.0001 12.1996 6.0001H3.79961Z" fill="#004E79"/>
</svg>