<svg xmlns="http://www.w3.org/2000/svg" width="24" height="24" viewBox="0 0 24 24" fill="none">
  <path d="M21.7312 2.26884C20.706 1.24372 19.044 1.24372 18.0189 2.26884L16.8617 3.426L20.574 7.13831L21.7312 5.98116C22.7563 4.95603 22.7563 3.29397 21.7312 2.26884Z" fill="url(#paint0_linear_874_3595)" fill-opacity="0.85"/>
  <path d="M19.5134 8.19897L15.801 4.48666L3.65021 16.6375C3.03342 17.2543 2.58003 18.015 2.33101 18.851L1.53123 21.5359C1.45261 21.7998 1.52496 22.0856 1.71969 22.2803C1.91442 22.4751 2.2002 22.5474 2.46413 22.4688L5.14902 21.669C5.98499 21.42 6.74574 20.9666 7.36253 20.3498L19.5134 8.19897Z" fill="url(#paint1_linear_874_3595)" fill-opacity="0.85"/>
  <defs>
    <linearGradient id="paint0_linear_874_3595" x1="1.5" y1="12" x2="22.5" y2="12" gradientUnits="userSpaceOnUse">
      <stop stop-color="#004E79"/>
      <stop offset="0.33" stop-color="#002279"/>
      <stop offset="0.685" stop-color="#6F0079"/>
      <stop offset="1" stop-color="#A9257C"/>
    </linearGradient>
    <linearGradient id="paint1_linear_874_3595" x1="1.5" y1="12" x2="22.5" y2="12" gradientUnits="userSpaceOnUse">
      <stop stop-color="#004E79"/>
      <stop offset="0.33" stop-color="#002279"/>
      <stop offset="0.685" stop-color="#6F0079"/>
      <stop offset="1" stop-color="#A9257C"/>
    </linearGradient>
  </defs>
</svg>