<svg xmlns="http://www.w3.org/2000/svg" width="16" height="16" viewBox="0 0 16 16" fill="none">
  <path d="M7.64645 2.56075C7.84171 2.36549 8.15829 2.36549 8.35355 2.56075L14.1464 8.35365C14.3417 8.54891 14.6583 8.54891 14.8536 8.35365C15.0488 8.15838 15.0488 7.8418 14.8536 7.64654L9.06066 1.85365C8.47487 1.26786 7.52513 1.26786 6.93934 1.85365L1.14645 7.64654C0.951184 7.8418 0.951184 8.15838 1.14645 8.35365C1.34171 8.54891 1.65829 8.54891 1.85355 8.35365L7.64645 2.56075Z" fill="#004E79"/>
  <path d="M8 3.62141L13.4393 9.06075C13.4592 9.08057 13.4794 9.09971 13.5 9.11818V13.2501C13.5 13.9404 12.9404 14.5001 12.25 14.5001H10C9.72386 14.5001 9.5 14.2762 9.5 14.0001V11.0001C9.5 10.7239 9.27614 10.5001 9 10.5001H7C6.72386 10.5001 6.5 10.7239 6.5 11.0001V14.0001C6.5 14.2762 6.27614 14.5001 6 14.5001H3.75C3.05964 14.5001 2.5 13.9404 2.5 13.2501V9.11818C2.52062 9.09971 2.54085 9.08057 2.56066 9.06075L8 3.62141Z" fill="#004E79"/>
</svg>