<svg xmlns="http://www.w3.org/2000/svg" width="17" height="18" viewBox="0 0 17 18" fill="none">
  <path fill-rule="evenodd" clip-rule="evenodd" d="M5.64432 5.40738C5.64432 3.99018 6.79319 2.84131 8.21039 2.84131C9.62759 2.84131 10.7765 3.99018 10.7765 5.40738C10.7765 6.82458 9.62759 7.97345 8.21039 7.97345C6.79319 7.97345 5.64432 6.82458 5.64432 5.40738Z" fill="white"/>
  <path fill-rule="evenodd" clip-rule="evenodd" d="M10.7765 7.46024C10.7765 6.32647 11.6956 5.40738 12.8293 5.40738C13.9631 5.40738 14.8822 6.32647 14.8822 7.46024C14.8822 8.594 13.9631 9.51309 12.8293 9.51309C11.6956 9.51309 10.7765 8.594 10.7765 7.46024Z" fill="white"/>
  <path fill-rule="evenodd" clip-rule="evenodd" d="M1.5386 7.46024C1.5386 6.32647 2.4577 5.40738 3.59146 5.40738C4.72522 5.40738 5.64432 6.32647 5.64432 7.46024C5.64432 8.594 4.72522 9.51309 3.59146 9.51309C2.4577 9.51309 1.5386 8.594 1.5386 7.46024Z" fill="white"/>
  <path fill-rule="evenodd" clip-rule="evenodd" d="M4.31671 11.1332C5.13646 9.85141 6.57382 8.99988 8.21039 8.99988C9.84716 8.99988 11.2847 9.85162 12.1044 11.1336C12.6711 12.0199 12.9162 13.0886 12.8012 14.1306C12.7833 14.2934 12.6886 14.4379 12.5465 14.5194C11.2687 15.2526 9.78772 15.6717 8.21039 15.6717C6.63305 15.6717 5.15203 15.2526 3.87424 14.5194C3.73214 14.4379 3.63751 14.2934 3.61954 14.1306C3.50451 13.0884 3.74981 12.0195 4.31671 11.1332Z" fill="white"/>
  <path d="M3.4767 10.542C3.46845 10.5547 3.46026 10.5674 3.45212 10.5801C2.79147 11.6131 2.48913 12.8433 2.58194 14.0561C2.16587 13.9929 1.76216 13.8912 1.37467 13.7548L1.29601 13.727C1.1525 13.6765 1.05223 13.5462 1.04017 13.3945L1.03355 13.3114C1.02814 13.2434 1.02539 13.1748 1.02539 13.1056C1.02539 11.7268 2.11275 10.6021 3.4767 10.542Z" fill="white"/>
  <path d="M13.8391 14.056C13.9319 12.8435 13.6297 11.6136 12.9693 10.5807C12.961 10.5678 12.9527 10.5549 12.9443 10.5421C14.3082 10.6022 15.3954 11.7269 15.3954 13.1056C15.3954 13.1748 15.3926 13.2434 15.3872 13.3114L15.3806 13.3945C15.3685 13.5462 15.2683 13.6765 15.1248 13.727L15.0461 13.7548C14.6587 13.8912 14.2551 13.9928 13.8391 14.056Z" fill="white"/>
</svg>