<svg xmlns="http://www.w3.org/2000/svg" width="18" height="18" viewBox="0 0 18 18" fill="none">
  <path d="M15.8704 17.3333L10.037 11.5C9.57407 11.8703 9.04167 12.1635 8.43981 12.3796C7.83796 12.5956 7.19753 12.7037 6.51852 12.7037C4.83642 12.7037 3.41281 12.1211 2.24769 10.956C1.08256 9.79085 0.5 8.36724 0.5 6.68514C0.5 5.00305 1.08256 3.57943 2.24769 2.41431C3.41281 1.24919 4.83642 0.666626 6.51852 0.666626C8.20062 0.666626 9.62423 1.24919 10.7894 2.41431C11.9545 3.57943 12.537 5.00305 12.537 6.68514C12.537 7.36416 12.429 8.00459 12.213 8.60644C11.9969 9.20829 11.7037 9.7407 11.3333 10.2037L17.1667 16.037L15.8704 17.3333ZM6.51852 10.8518C7.67593 10.8518 8.65972 10.4467 9.46991 9.63653C10.2801 8.82635 10.6852 7.84255 10.6852 6.68514C10.6852 5.52774 10.2801 4.54394 9.46991 3.73376C8.65972 2.92357 7.67593 2.51848 6.51852 2.51848C5.36111 2.51848 4.37731 2.92357 3.56713 3.73376C2.75694 4.54394 2.35185 5.52774 2.35185 6.68514C2.35185 7.84255 2.75694 8.82635 3.56713 9.63653C4.37731 10.4467 5.36111 10.8518 6.51852 10.8518Z" fill="#1F2937"/>
</svg>