<svg xmlns="http://www.w3.org/2000/svg" width="16" height="18" viewBox="0 0 16 18" fill="none">
  <mask id="path-1-inside-1_1217_4239" fill="white">
    <path fill-rule="evenodd" clip-rule="evenodd" d="M1.58164 16.5879H11.0715C11.5083 16.5879 11.8623 16.2104 11.8623 15.7448V2.25506C11.8623 1.78943 11.5083 1.41196 11.0715 1.41196H1.58164C1.14488 1.41196 0.790822 1.78943 0.790822 2.25506V15.7448C0.790822 16.2104 1.14488 16.5879 1.58164 16.5879ZM11.0715 17.431H1.58164C0.708126 17.431 0 16.676 0 15.7448V2.25506C0 1.32379 0.708126 0.568848 1.58164 0.568848H11.0715C11.945 0.568848 12.6532 1.32379 12.6532 2.25506V15.7448C12.6532 16.676 11.945 17.431 11.0715 17.431Z"/>
  </mask>
  <path fill-rule="evenodd" clip-rule="evenodd" d="M1.58164 16.5879H11.0715C11.5083 16.5879 11.8623 16.2104 11.8623 15.7448V2.25506C11.8623 1.78943 11.5083 1.41196 11.0715 1.41196H1.58164C1.14488 1.41196 0.790822 1.78943 0.790822 2.25506V15.7448C0.790822 16.2104 1.14488 16.5879 1.58164 16.5879ZM11.0715 17.431H1.58164C0.708126 17.431 0 16.676 0 15.7448V2.25506C0 1.32379 0.708126 0.568848 1.58164 0.568848H11.0715C11.945 0.568848 12.6532 1.32379 12.6532 2.25506V15.7448C12.6532 16.676 11.945 17.431 11.0715 17.431Z" fill="#004E79"/>
  <path d="M1.58164 17.5764H11.0715V15.5993H1.58164V17.5764ZM11.0715 17.5764C12.1129 17.5764 12.8509 16.6958 12.8509 15.7448H10.8738C10.8738 15.725 10.8819 15.6943 10.9097 15.6647C10.9385 15.6339 10.9957 15.5993 11.0715 15.5993V17.5764ZM12.8509 15.7448V2.25506H10.8738V15.7448H12.8509ZM12.8509 2.25506C12.8509 1.30405 12.1129 0.423405 11.0715 0.423405V2.40051C10.9957 2.40051 10.9385 2.36594 10.9097 2.33519C10.8819 2.30553 10.8738 2.27487 10.8738 2.25506H12.8509ZM11.0715 0.423405H1.58164V2.40051H11.0715V0.423405ZM1.58164 0.423405C0.540258 0.423405 -0.197729 1.30404 -0.197729 2.25506H1.77937C1.77937 2.27488 1.77127 2.30554 1.74346 2.33519C1.71462 2.36594 1.6575 2.40051 1.58164 2.40051V0.423405ZM-0.197729 2.25506V15.7448H1.77937V2.25506H-0.197729ZM-0.197729 15.7448C-0.197729 16.6958 0.540267 17.5764 1.58164 17.5764V15.5993C1.65749 15.5993 1.71461 15.6339 1.74346 15.6647C1.77128 15.6943 1.77937 15.725 1.77937 15.7448H-0.197729ZM11.0715 16.4425H1.58164V18.4196H11.0715V16.4425ZM1.58164 16.4425C1.31276 16.4425 0.988551 16.1907 0.988551 15.7448H-0.988551C-0.988551 17.1614 0.103493 18.4196 1.58164 18.4196V16.4425ZM0.988551 15.7448V2.25506H-0.988551V15.7448H0.988551ZM0.988551 2.25506C0.988551 1.80918 1.31275 1.5574 1.58164 1.5574V-0.419703C0.103499 -0.419703 -0.988551 0.838402 -0.988551 2.25506H0.988551ZM1.58164 1.5574H11.0715V-0.419703H1.58164V1.5574ZM11.0715 1.5574C11.3404 1.5574 11.6646 1.80919 11.6646 2.25506H13.6417C13.6417 0.838396 12.5496 -0.419703 11.0715 -0.419703V1.5574ZM11.6646 2.25506V15.7448H13.6417V2.25506H11.6646ZM11.6646 15.7448C11.6646 16.1907 11.3404 16.4425 11.0715 16.4425V18.4196C12.5496 18.4196 13.6417 17.1614 13.6417 15.7448H11.6646Z" fill="#004E79" mask="url(#path-1-inside-1_1217_4239)"/>
  <mask id="path-3-inside-2_1217_4239" fill="white">
    <path fill-rule="evenodd" clip-rule="evenodd" d="M5.53516 4.36272C5.53516 4.12989 5.71218 3.94116 5.93057 3.94116H10.6755C10.8939 3.94116 11.0709 4.12989 11.0709 4.36272C11.0709 4.59554 10.8939 4.78427 10.6755 4.78427H5.93057C5.71218 4.78427 5.53516 4.59554 5.53516 4.36272Z"/>
  </mask>
  <path fill-rule="evenodd" clip-rule="evenodd" d="M5.53516 4.36272C5.53516 4.12989 5.71218 3.94116 5.93057 3.94116H10.6755C10.8939 3.94116 11.0709 4.12989 11.0709 4.36272C11.0709 4.59554 10.8939 4.78427 10.6755 4.78427H5.93057C5.71218 4.78427 5.53516 4.59554 5.53516 4.36272Z" fill="#004E79"/>
  <path d="M6.52371 4.36272C6.52371 4.61528 6.31681 4.92971 5.93057 4.92971V2.95261C5.10756 2.95261 4.54661 3.6445 4.54661 4.36272H6.52371ZM5.93057 4.92971H10.6755V2.95261H5.93057V4.92971ZM10.6755 4.92971C10.2893 4.92971 10.0824 4.61528 10.0824 4.36272H12.0595C12.0595 3.6445 11.4985 2.95261 10.6755 2.95261V4.92971ZM10.0824 4.36272C10.0824 4.11015 10.2893 3.79572 10.6755 3.79572V5.77282C11.4985 5.77282 12.0595 5.08093 12.0595 4.36272H10.0824ZM10.6755 3.79572H5.93057V5.77282H10.6755V3.79572ZM5.93057 3.79572C6.31681 3.79572 6.52371 4.11015 6.52371 4.36272H4.54661C4.54661 5.08093 5.10756 5.77282 5.93057 5.77282V3.79572Z" fill="#004E79" mask="url(#path-3-inside-2_1217_4239)"/>
  <mask id="path-5-inside-3_1217_4239" fill="white">
    <path fill-rule="evenodd" clip-rule="evenodd" d="M5.53516 6.049C5.53516 5.81617 5.71218 5.62744 5.93057 5.62744H10.6755C10.8939 5.62744 11.0709 5.81617 11.0709 6.049C11.0709 6.28182 10.8939 6.47055 10.6755 6.47055H5.93057C5.71218 6.47055 5.53516 6.28182 5.53516 6.049Z"/>
  </mask>
  <path fill-rule="evenodd" clip-rule="evenodd" d="M5.53516 6.049C5.53516 5.81617 5.71218 5.62744 5.93057 5.62744H10.6755C10.8939 5.62744 11.0709 5.81617 11.0709 6.049C11.0709 6.28182 10.8939 6.47055 10.6755 6.47055H5.93057C5.71218 6.47055 5.53516 6.28182 5.53516 6.049Z" fill="#004E79"/>
  <path d="M6.52371 6.049C6.52371 6.30156 6.31681 6.61599 5.93057 6.61599V4.63889C5.10756 4.63889 4.54661 5.33078 4.54661 6.049H6.52371ZM5.93057 6.61599H10.6755V4.63889H5.93057V6.61599ZM10.6755 6.61599C10.2893 6.61599 10.0824 6.30156 10.0824 6.049H12.0595C12.0595 5.33078 11.4985 4.63889 10.6755 4.63889V6.61599ZM10.0824 6.049C10.0824 5.79643 10.2893 5.482 10.6755 5.482V7.4591C11.4985 7.4591 12.0595 6.76721 12.0595 6.049H10.0824ZM10.6755 5.482H5.93057V7.4591H10.6755V5.482ZM5.93057 5.482C6.31681 5.482 6.52371 5.79643 6.52371 6.049H4.54661C4.54661 6.76721 5.10756 7.4591 5.93057 7.4591V5.482Z" fill="#004E79" mask="url(#path-5-inside-3_1217_4239)"/>
  <mask id="path-7-inside-4_1217_4239" fill="white">
    <path fill-rule="evenodd" clip-rule="evenodd" d="M5.53516 9.42131C5.53516 9.18849 5.71218 8.99976 5.93057 8.99976H10.6755C10.8939 8.99976 11.0709 9.18849 11.0709 9.42131C11.0709 9.65413 10.8939 9.84286 10.6755 9.84286H5.93057C5.71218 9.84286 5.53516 9.65413 5.53516 9.42131Z"/>
  </mask>
  <path fill-rule="evenodd" clip-rule="evenodd" d="M5.53516 9.42131C5.53516 9.18849 5.71218 8.99976 5.93057 8.99976H10.6755C10.8939 8.99976 11.0709 9.18849 11.0709 9.42131C11.0709 9.65413 10.8939 9.84286 10.6755 9.84286H5.93057C5.71218 9.84286 5.53516 9.65413 5.53516 9.42131Z" fill="#004E79"/>
  <path d="M6.52371 9.42131C6.52371 9.67388 6.31681 9.98831 5.93057 9.98831V8.0112C5.10756 8.0112 4.54661 8.7031 4.54661 9.42131H6.52371ZM5.93057 9.98831H10.6755V8.0112H5.93057V9.98831ZM10.6755 9.98831C10.2893 9.98831 10.0824 9.67388 10.0824 9.42131H12.0595C12.0595 8.7031 11.4985 8.0112 10.6755 8.0112V9.98831ZM10.0824 9.42131C10.0824 9.16874 10.2893 8.85431 10.6755 8.85431V10.8314C11.4985 10.8314 12.0595 10.1395 12.0595 9.42131H10.0824ZM10.6755 8.85431H5.93057V10.8314H10.6755V8.85431ZM5.93057 8.85431C6.31681 8.85431 6.52371 9.16874 6.52371 9.42131H4.54661C4.54661 10.1395 5.10756 10.8314 5.93057 10.8314V8.85431Z" fill="#004E79" mask="url(#path-7-inside-4_1217_4239)"/>
  <mask id="path-9-inside-5_1217_4239" fill="white">
    <path fill-rule="evenodd" clip-rule="evenodd" d="M5.53516 11.1076C5.53516 10.8748 5.71218 10.686 5.93057 10.686H10.6755C10.8939 10.686 11.0709 10.8748 11.0709 11.1076C11.0709 11.3404 10.8939 11.5291 10.6755 11.5291H5.93057C5.71218 11.5291 5.53516 11.3404 5.53516 11.1076Z"/>
  </mask>
  <path fill-rule="evenodd" clip-rule="evenodd" d="M5.53516 11.1076C5.53516 10.8748 5.71218 10.686 5.93057 10.686H10.6755C10.8939 10.686 11.0709 10.8748 11.0709 11.1076C11.0709 11.3404 10.8939 11.5291 10.6755 11.5291H5.93057C5.71218 11.5291 5.53516 11.3404 5.53516 11.1076Z" fill="#004E79"/>
  <path d="M6.52371 11.1076C6.52371 11.3602 6.31681 11.6746 5.93057 11.6746V9.69748C5.10756 9.69748 4.54661 10.3894 4.54661 11.1076H6.52371ZM5.93057 11.6746H10.6755V9.69748H5.93057V11.6746ZM10.6755 11.6746C10.2893 11.6746 10.0824 11.3602 10.0824 11.1076H12.0595C12.0595 10.3894 11.4985 9.69748 10.6755 9.69748V11.6746ZM10.0824 11.1076C10.0824 10.855 10.2893 10.5406 10.6755 10.5406V12.5177C11.4985 12.5177 12.0595 11.8258 12.0595 11.1076H10.0824ZM10.6755 10.5406H5.93057V12.5177H10.6755V10.5406ZM5.93057 10.5406C6.31681 10.5406 6.52371 10.855 6.52371 11.1076H4.54661C4.54661 11.8258 5.10756 12.5177 5.93057 12.5177V10.5406Z" fill="#004E79" mask="url(#path-9-inside-5_1217_4239)"/>
  <mask id="path-11-inside-6_1217_4239" fill="white">
    <path fill-rule="evenodd" clip-rule="evenodd" d="M2.3709 9.84286V11.1075H3.55713V9.84286H2.3709ZM1.97549 8.99976H3.95254C4.17093 8.99976 4.34796 9.18849 4.34796 9.42131V11.5291C4.34796 11.7619 4.17093 11.9506 3.95254 11.9506H1.97549C1.75711 11.9506 1.58008 11.7619 1.58008 11.5291V9.42131C1.58008 9.18849 1.75711 8.99976 1.97549 8.99976Z"/>
  </mask>
  <path fill-rule="evenodd" clip-rule="evenodd" d="M2.3709 9.84286V11.1075H3.55713V9.84286H2.3709ZM1.97549 8.99976H3.95254C4.17093 8.99976 4.34796 9.18849 4.34796 9.42131V11.5291C4.34796 11.7619 4.17093 11.9506 3.95254 11.9506H1.97549C1.75711 11.9506 1.58008 11.7619 1.58008 11.5291V9.42131C1.58008 9.18849 1.75711 8.99976 1.97549 8.99976Z" fill="#004E79"/>
  <path d="M2.3709 9.84286V8.85431H1.38235V9.84286H2.3709ZM2.3709 11.1075H1.38235V12.0961H2.3709V11.1075ZM3.55713 11.1075V12.0961H4.54568V11.1075H3.55713ZM3.55713 9.84286H4.54568V8.85431H3.55713V9.84286ZM1.38235 9.84286V11.1075H3.35945V9.84286H1.38235ZM2.3709 12.0961H3.55713V10.119H2.3709V12.0961ZM4.54568 11.1075V9.84286H2.56858V11.1075H4.54568ZM3.55713 8.85431H2.3709V10.8314H3.55713V8.85431ZM1.97549 9.98831H3.95254V8.0112H1.97549V9.98831ZM3.95254 9.98831C3.5663 9.98831 3.3594 9.67388 3.3594 9.42131H5.33651C5.33651 8.7031 4.77556 8.0112 3.95254 8.0112V9.98831ZM3.3594 9.42131V11.5291H5.33651V9.42131H3.3594ZM3.3594 11.5291C3.3594 11.2765 3.5663 10.9621 3.95254 10.9621V12.9392C4.77556 12.9392 5.33651 12.2473 5.33651 11.5291H3.3594ZM3.95254 10.9621H1.97549V12.9392H3.95254V10.9621ZM1.97549 10.9621C2.36173 10.9621 2.56863 11.2765 2.56863 11.5291H0.591527C0.591527 12.2473 1.1525 12.9392 1.97549 12.9392V10.9621ZM2.56863 11.5291V9.42131H0.591527V11.5291H2.56863ZM2.56863 9.42131C2.56863 9.67389 2.36173 9.98831 1.97549 9.98831V8.0112C1.1525 8.0112 0.591527 8.70308 0.591527 9.42131H2.56863Z" fill="#004E79" mask="url(#path-11-inside-6_1217_4239)"/>
  <mask id="path-13-inside-7_1217_4239" fill="white">
    <path fill-rule="evenodd" clip-rule="evenodd" d="M4.62755 4.06462C4.78196 4.22924 4.78196 4.49617 4.62755 4.66079L2.76631 6.64508L1.69589 5.50389C1.54147 5.33928 1.54147 5.07235 1.69589 4.90773C1.85031 4.74312 2.10067 4.74312 2.25509 4.90773L2.76631 5.45276L4.06836 4.06462C4.22277 3.90001 4.47314 3.90001 4.62755 4.06462Z"/>
  </mask>
  <path fill-rule="evenodd" clip-rule="evenodd" d="M4.62755 4.06462C4.78196 4.22924 4.78196 4.49617 4.62755 4.66079L2.76631 6.64508L1.69589 5.50389C1.54147 5.33928 1.54147 5.07235 1.69589 4.90773C1.85031 4.74312 2.10067 4.74312 2.25509 4.90773L2.76631 5.45276L4.06836 4.06462C4.22277 3.90001 4.47314 3.90001 4.62755 4.06462Z" fill="#004E79"/>
  <path d="M4.62755 4.66079L5.34856 5.33708L4.62755 4.66079ZM2.76631 6.64508L2.0453 7.32138L2.76631 8.09006L3.48732 7.32138L2.76631 6.64508ZM1.69589 5.50389L2.4169 4.8276L2.41688 4.82758L1.69589 5.50389ZM1.69589 4.90773L0.974905 4.23141L0.974897 4.23142L1.69589 4.90773ZM2.25509 4.90773L2.9761 4.23144L2.97607 4.23141L2.25509 4.90773ZM2.76631 5.45276L2.0453 6.12905L2.76631 6.89774L3.48732 6.12906L2.76631 5.45276ZM4.06836 4.06462L3.34735 3.38833L4.06836 4.06462ZM3.90654 4.74092C3.70423 4.52523 3.70423 4.20018 3.90654 3.98449L5.34856 5.33708C5.85969 4.79216 5.85969 3.93325 5.34856 3.38833L3.90654 4.74092ZM3.90654 3.98449L2.0453 5.96879L3.48732 7.32138L5.34856 5.33708L3.90654 3.98449ZM3.48732 5.96878L2.4169 4.8276L0.974881 6.18019L2.0453 7.32138L3.48732 5.96878ZM2.41688 4.82758C2.61921 5.04327 2.61921 5.36835 2.41688 5.58405L0.974897 4.23142C0.463737 4.77635 0.463737 5.63528 0.974897 6.18021L2.41688 4.82758ZM2.41687 5.58406C2.18078 5.83574 1.7702 5.83574 1.5341 5.58406L2.97607 4.23141C2.43114 3.65049 1.51984 3.65049 0.974905 4.23141L2.41687 5.58406ZM1.53408 5.58403L2.0453 6.12905L3.48732 4.77647L2.9761 4.23144L1.53408 5.58403ZM3.48732 6.12906L4.78937 4.74092L3.34735 3.38833L2.0453 4.77646L3.48732 6.12906ZM4.78937 4.74092C4.55326 4.99264 4.14265 4.99264 3.90654 4.74092L5.34856 3.38833C4.80363 2.80737 3.89228 2.80737 3.34735 3.38833L4.78937 4.74092Z" fill="#004E79" mask="url(#path-13-inside-7_1217_4239)"/>
  <mask id="path-15-inside-8_1217_4239" fill="white">
    <path fill-rule="evenodd" clip-rule="evenodd" d="M15.027 8.9996H14.2361V15.4634L14.6315 16.0255L15.027 15.4634V8.9996ZM15.8178 15.7445L14.6315 17.4307L13.4453 15.7445V8.15649H15.8178V15.7445Z"/>
  </mask>
  <path fill-rule="evenodd" clip-rule="evenodd" d="M15.027 8.9996H14.2361V15.4634L14.6315 16.0255L15.027 15.4634V8.9996ZM15.8178 15.7445L14.6315 17.4307L13.4453 15.7445V8.15649H15.8178V15.7445Z" fill="#004E79"/>
  <path d="M15.027 8.9996H16.0155V8.01105H15.027V8.9996ZM14.2361 8.9996V8.01105H13.2476V8.9996H14.2361ZM14.2361 15.4634H13.2476V15.7763L13.4276 16.0322L14.2361 15.4634ZM14.6315 16.0255L13.823 16.5943L14.6315 17.7437L15.4401 16.5943L14.6315 16.0255ZM15.027 15.4634L15.8355 16.0322L16.0155 15.7763V15.4634H15.027ZM15.8178 15.7445L16.6263 16.3133L16.8063 16.0573V15.7445H15.8178ZM14.6315 17.4307L13.823 17.9995L14.6315 19.1488L15.4401 17.9995L14.6315 17.4307ZM13.4453 15.7445H12.4568V16.0573L12.6368 16.3133L13.4453 15.7445ZM13.4453 8.15649V7.16794H12.4568V8.15649H13.4453ZM15.8178 8.15649H16.8063V7.16794H15.8178V8.15649ZM15.027 8.01105H14.2361V9.98815H15.027V8.01105ZM13.2476 8.9996V15.4634H15.2247V8.9996H13.2476ZM13.4276 16.0322L13.823 16.5943L15.4401 15.4567L15.0447 14.8946L13.4276 16.0322ZM15.4401 16.5943L15.8355 16.0322L14.2184 14.8946L13.823 15.4567L15.4401 16.5943ZM16.0155 15.4634V8.9996H14.0384V15.4634H16.0155ZM15.0093 15.1757L13.823 16.8619L15.4401 17.9995L16.6263 16.3133L15.0093 15.1757ZM15.4401 16.8619L14.2538 15.1757L12.6368 16.3133L13.823 17.9995L15.4401 16.8619ZM14.4339 15.7445V8.15649H12.4568V15.7445H14.4339ZM13.4453 9.14505H15.8178V7.16794H13.4453V9.14505ZM14.8292 8.15649V15.7445H16.8063V8.15649H14.8292Z" fill="#004E79" mask="url(#path-15-inside-8_1217_4239)"/>
  <mask id="path-17-inside-9_1217_4239" fill="white">
    <path fill-rule="evenodd" clip-rule="evenodd" d="M15.027 6.04916H14.2361V6.89227H15.027V6.04916ZM14.2361 5.20605H15.027C15.4637 5.20605 15.8178 5.58351 15.8178 6.04916V7.73538H13.4453V6.04916C13.4453 5.58351 13.7994 5.20605 14.2361 5.20605Z"/>
  </mask>
  <path fill-rule="evenodd" clip-rule="evenodd" d="M15.027 6.04916H14.2361V6.89227H15.027V6.04916ZM14.2361 5.20605H15.027C15.4637 5.20605 15.8178 5.58351 15.8178 6.04916V7.73538H13.4453V6.04916C13.4453 5.58351 13.7994 5.20605 14.2361 5.20605Z" fill="#004E79"/>
  <path d="M15.027 6.04916H16.0155V5.06061H15.027V6.04916ZM14.2361 6.04916V5.06061H13.2476V6.04916H14.2361ZM14.2361 6.89227H13.2476V7.88082H14.2361V6.89227ZM15.027 6.89227V7.88082H16.0155V6.89227H15.027ZM15.8178 7.73538V8.72393H16.8063V7.73538H15.8178ZM13.4453 7.73538H12.4568V8.72393H13.4453V7.73538ZM15.027 5.06061H14.2361V7.03771H15.027V5.06061ZM13.2476 6.04916V6.89227H15.2247V6.04916H13.2476ZM14.2361 7.88082H15.027V5.90372H14.2361V7.88082ZM16.0155 6.89227V6.04916H14.0384V6.89227H16.0155ZM14.2361 6.19461H15.027V4.2175H14.2361V6.19461ZM15.027 6.19461C14.9511 6.19461 14.894 6.16004 14.8651 6.12929C14.8373 6.09962 14.8292 6.06896 14.8292 6.04916H16.8063C16.8063 5.09812 16.0684 4.2175 15.027 4.2175V6.19461ZM14.8292 6.04916V7.73538H16.8063V6.04916H14.8292ZM15.8178 6.74683H13.4453V8.72393H15.8178V6.74683ZM14.4339 7.73538V6.04916H12.4568V7.73538H14.4339ZM14.4339 6.04916C14.4339 6.06896 14.4258 6.09962 14.3979 6.12929C14.3691 6.16004 14.312 6.19461 14.2361 6.19461V4.2175C13.1947 4.2175 12.4568 5.09812 12.4568 6.04916H14.4339Z" fill="#004E79" mask="url(#path-17-inside-9_1217_4239)"/>
</svg>