<svg xmlns="http://www.w3.org/2000/svg" width="18" height="18" viewBox="0 0 18 18" fill="none">
  <path fill-rule="evenodd" clip-rule="evenodd" d="M5.0625 1.6875C5.37316 1.6875 5.625 1.93934 5.625 2.25V3.375H12.375V2.25C12.375 1.93934 12.6268 1.6875 12.9375 1.6875C13.2482 1.6875 13.5 1.93934 13.5 2.25V3.375H14.0625C15.3051 3.375 16.3125 4.38236 16.3125 5.625V14.0625C16.3125 15.3051 15.3051 16.3125 14.0625 16.3125H3.9375C2.69486 16.3125 1.6875 15.3051 1.6875 14.0625V5.625C1.6875 4.38236 2.69486 3.375 3.9375 3.375H4.5V2.25C4.5 1.93934 4.75184 1.6875 5.0625 1.6875ZM15.1875 8.4375C15.1875 7.81618 14.6838 7.3125 14.0625 7.3125H3.9375C3.31618 7.3125 2.8125 7.81618 2.8125 8.4375V14.0625C2.8125 14.6838 3.31618 15.1875 3.9375 15.1875H14.0625C14.6838 15.1875 15.1875 14.6838 15.1875 14.0625V8.4375Z" fill="#004E79"/>
</svg>