<svg xmlns="http://www.w3.org/2000/svg" width="24" height="24" viewBox="0 0 24 24" fill="none">
  <path fill-rule="evenodd" clip-rule="evenodd" d="M10 2C9.44772 2 9 2.44772 9 3V4.15598C9 4.33573 8.9996 4.42757 8.99564 4.49409L8.9953 4.49967L8.99063 4.50276C8.93501 4.53944 8.85567 4.58572 8.7 4.67559L7.30688 5.47991C7.15121 5.56979 7.07147 5.61536 7.01189 5.64519L7.00688 5.64768L7.00187 5.64519C6.94229 5.61536 6.86255 5.56979 6.70688 5.47991L5.70577 4.90192C5.22748 4.62578 4.61589 4.78966 4.33975 5.26795L2.33975 8.73205C2.0636 9.21034 2.22748 9.82193 2.70577 10.0981L3.70008 10.6721C3.85575 10.762 3.93509 10.8083 3.99072 10.845L3.99538 10.8481L3.99573 10.8536C3.99968 10.9202 4.00008 11.012 4.00008 11.1918V12.8082C4.00008 12.988 3.99968 13.0798 3.99573 13.1463L3.99538 13.1519L3.99072 13.155C3.93509 13.1917 3.85575 13.238 3.70008 13.3278L2.70573 13.9019C2.22744 14.1781 2.06357 14.7897 2.33971 15.2679L4.33971 18.7321C4.47232 18.9617 4.69074 19.1293 4.94691 19.198C5.20309 19.2666 5.47605 19.2307 5.70573 19.0981L6.69319 18.528C6.84886 18.4381 6.9286 18.3925 6.98818 18.3627L6.99319 18.3602L6.9982 18.3627C7.05778 18.3925 7.13752 18.4381 7.29319 18.528L8.7 19.3402C8.85567 19.4301 8.93501 19.4763 8.99063 19.513L8.9953 19.5161L8.99564 19.5217C8.9996 19.5882 9 19.6801 9 19.8598V21C9 21.5523 9.44772 22 10 22H14C14.5523 22 15 21.5523 15 21V19.8599C15 19.6802 15.0004 19.5883 15.0044 19.5218L15.0047 19.5162L15.0094 19.5131C15.065 19.4764 15.1443 19.4302 15.3 19.3403L16.7069 18.528C16.8625 18.4382 16.9423 18.3926 17.0019 18.3627L17.0069 18.3603L17.0119 18.3627C17.0715 18.3926 17.1512 18.4382 17.3069 18.528L18.2942 19.0981C18.5239 19.2307 18.7969 19.2666 19.053 19.198C19.3092 19.1293 19.5276 18.9617 19.6603 18.7321L21.6603 15.2679C21.9364 14.7897 21.7725 14.1781 21.2942 13.9019L20.3001 13.328C20.1444 13.2381 20.0651 13.1918 20.0095 13.1551L20.0048 13.152L20.0044 13.1464C20.0005 13.0799 20.0001 12.9881 20.0001 12.8083V11.1916C20.0001 11.0119 20.0005 10.92 20.0044 10.8535L20.0048 10.8479L20.0095 10.8449C20.0651 10.8082 20.1444 10.7619 20.3001 10.672L21.2942 10.0981C21.7725 9.82193 21.9364 9.21034 21.6602 8.73205L19.6602 5.26795C19.5276 5.03827 19.3092 4.87067 19.053 4.80202C18.7968 4.73338 18.5239 4.76932 18.2942 4.90192L17.2932 5.47985C17.1375 5.56973 17.0578 5.6153 16.9982 5.64513L16.9932 5.64762L16.9882 5.64513C16.9286 5.6153 16.8489 5.56973 16.6932 5.47985L15.3 4.6755C15.1443 4.58562 15.065 4.53935 15.0094 4.50267L15.0047 4.49957L15.0044 4.49399C15.0004 4.42747 15 4.33563 15 4.15588V3C15 2.44772 14.5523 2 14 2H10ZM11 4.15598V4H13V4.15588L12.9998 4.22668V4.2267C12.9989 4.486 12.9977 4.81208 13.0979 5.12032C13.1845 5.38688 13.3262 5.63226 13.5137 5.84055C13.7306 6.08141 14.0136 6.24344 14.2386 6.37229L14.2386 6.37229L14.3 6.40755L15.6932 7.2119L15.7544 7.24745C15.9785 7.37791 16.2603 7.54197 16.5774 7.60935C16.8515 7.66763 17.1349 7.66763 17.409 7.60935C17.726 7.54197 18.0079 7.37791 18.232 7.24745L18.2932 7.2119L18.4282 7.13398L19.4282 8.86603L19.3001 8.93997L19.2387 8.97522C19.0137 9.10407 18.7307 9.2661 18.5138 9.50697C18.3263 9.71526 18.1846 9.96064 18.098 10.2272C17.9978 10.5354 17.999 10.8615 17.9999 11.1208V11.1208L18.0001 11.1916V12.8083L17.9999 12.8791V12.8792C17.999 13.1385 17.9978 13.4645 18.098 13.7728C18.1846 14.0393 18.3263 14.2847 18.5138 14.493C18.7307 14.7339 19.0137 14.8959 19.2387 15.0248L19.3001 15.06L19.4282 15.134L18.4282 16.866L18.3069 16.796L18.2456 16.7604C18.0215 16.63 17.7397 16.4659 17.4227 16.3985C17.1485 16.3403 16.8652 16.3403 16.5911 16.3985C16.274 16.4659 15.9922 16.63 15.7681 16.7604L15.7069 16.796L14.3 17.6082L14.2386 17.6435C14.0136 17.7723 13.7306 17.9344 13.5137 18.1752C13.3262 18.3835 13.1845 18.6289 13.0979 18.8955C12.9977 19.2037 12.9989 19.5298 12.9998 19.7891V19.7891L13 19.8599V20H11V19.8598L11.0002 19.789C11.0011 19.5297 11.0023 19.2036 10.9021 18.8954C10.8155 18.6288 10.6738 18.3834 10.4863 18.1751C10.2694 17.9343 9.98643 17.7722 9.7614 17.6434L9.7 17.6081L8.29319 16.7959L8.23196 16.7604C8.00786 16.6299 7.72605 16.4659 7.40901 16.3985C7.13486 16.3402 6.85152 16.3402 6.57737 16.3985C6.26033 16.4659 5.97852 16.6299 5.75442 16.7604L5.69319 16.7959L5.57176 16.866L4.57176 15.134L4.70008 15.0599L4.76148 15.0246C4.98651 14.8958 5.2695 14.7338 5.48637 14.4929C5.67392 14.2846 5.81559 14.0392 5.9022 13.7727C6.00235 13.4644 6.00119 13.1383 6.00026 12.879L6.00008 12.8082V11.1918L6.00026 11.121C6.00119 10.8617 6.00235 10.5356 5.9022 10.2273C5.81559 9.96075 5.67392 9.71537 5.48637 9.50709C5.2695 9.26622 4.98651 9.10419 4.76148 8.97534L4.70008 8.94009L4.5718 8.86603L5.5718 7.13397L5.70688 7.21196L5.76811 7.24751L5.76811 7.24751C5.99221 7.37797 6.27402 7.54203 6.59105 7.60941C6.86521 7.66769 7.14855 7.66769 7.4227 7.60941C7.73973 7.54202 8.02155 7.37797 8.24565 7.24751L8.30688 7.21196L9.7 6.40764L9.7614 6.37239L9.7614 6.37239C9.98643 6.24354 10.2694 6.08151 10.4863 5.84065C10.6738 5.63236 10.8155 5.38698 10.9021 5.12042C11.0023 4.81217 11.0011 4.48608 11.0002 4.22678L11 4.15598ZM9.99976 12C9.99976 10.8954 10.8952 10 11.9998 10C13.1043 10 13.9998 10.8954 13.9998 12C13.9998 13.1046 13.1043 14 11.9998 14C10.8952 14 9.99976 13.1046 9.99976 12ZM11.9998 8C9.79062 8 7.99976 9.79086 7.99976 12C7.99976 14.2091 9.79062 16 11.9998 16C14.2089 16 15.9998 14.2091 15.9998 12C15.9998 9.79086 14.2089 8 11.9998 8Z" fill="white"/>
</svg>